<?xml version="1.0" encoding="utf-8" standalone="no"?>
<!DOCTYPE svg PUBLIC "-//W3C//DTD SVG 1.1//EN"
  "http://www.w3.org/Graphics/SVG/1.1/DTD/svg11.dtd">
<svg xmlns:xlink="http://www.w3.org/1999/xlink" width="284.984375pt" height="189.37656pt" viewBox="0 0 284.984375 189.37656" xmlns="http://www.w3.org/2000/svg" version="1.1">
 <metadata>
  <rdf:RDF xmlns:dc="http://purl.org/dc/elements/1.1/" xmlns:cc="http://creativecommons.org/ns#" xmlns:rdf="http://www.w3.org/1999/02/22-rdf-syntax-ns#">
   <cc:Work>
    <dc:type rdf:resource="http://purl.org/dc/dcmitype/StillImage"/>
    <dc:date>2023-09-10T18:26:43.192778</dc:date>
    <dc:format>image/svg+xml</dc:format>
    <dc:creator>
     <cc:Agent>
      <dc:title>Matplotlib v3.7.2, https://matplotlib.org/</dc:title>
     </cc:Agent>
    </dc:creator>
   </cc:Work>
  </rdf:RDF>
 </metadata>
 <defs>
  <style type="text/css">*{stroke-linejoin: round; stroke-linecap: butt}</style>
 </defs>
 <g id="figure_1">
  <g id="patch_1">
   <path d="M 0 189.37656 
L 284.984375 189.37656 
L 284.984375 0 
L 0 0 
L 0 189.37656 
z
" style="fill: none"/>
  </g>
  <g id="axes_1">
   <g id="patch_2">
    <path d="M 34.240625 151.82031 
L 268.240625 151.82031 
L 268.240625 7.2 
L 34.240625 7.2 
L 34.240625 151.82031 
z
" style="fill: none"/>
   </g>
   <g id="PathCollection_1">
    <defs>
     <path id="m82c44a267d" d="M 0 -3 
L -0.673542 -0.927051 
L -2.85317 -0.927051 
L -1.089814 0.354102 
L -1.763356 2.427051 
L -0 1.145898 
L 1.763356 2.427051 
L 1.089814 0.354102 
L 2.85317 -0.927051 
L 0.673542 -0.927051 
z
" style="stroke: #ff0000"/>
    </defs>
    <g clip-path="url(#pedd27e8557)">
     <use xlink:href="#m82c44a267d" x="53.740625" y="121.088494" style="fill: #ff0000; stroke: #ff0000"/>
     <use xlink:href="#m82c44a267d" x="121.015625" y="121.088494" style="fill: #ff0000; stroke: #ff0000"/>
    </g>
   </g>
   <g id="PathCollection_2">
    <defs>
     <path id="m51eabbca07" d="M 0 -3 
L -0.673542 -0.927051 
L -2.85317 -0.927051 
L -1.089814 0.354102 
L -1.763356 2.427051 
L -0 1.145898 
L 1.763356 2.427051 
L 1.089814 0.354102 
L 2.85317 -0.927051 
L 0.673542 -0.927051 
z
" style="stroke: #008000"/>
    </defs>
    <g clip-path="url(#pedd27e8557)">
     <use xlink:href="#m51eabbca07" x="102.490625" y="84.933417" style="fill: #008000; stroke: #008000"/>
     <use xlink:href="#m51eabbca07" x="135.640625" y="84.933417" style="fill: #008000; stroke: #008000"/>
     <use xlink:href="#m51eabbca07" x="190.240625" y="84.933417" style="fill: #008000; stroke: #008000"/>
     <use xlink:href="#m51eabbca07" x="226.315625" y="84.933417" style="fill: #008000; stroke: #008000"/>
    </g>
   </g>
   <g id="PathCollection_3">
    <defs>
     <path id="m82aee0bb7c" d="M 0 -3 
L -0.673542 -0.927051 
L -2.85317 -0.927051 
L -1.089814 0.354102 
L -1.763356 2.427051 
L -0 1.145898 
L 1.763356 2.427051 
L 1.089814 0.354102 
L 2.85317 -0.927051 
L 0.673542 -0.927051 
z
" style="stroke: #0000ff"/>
    </defs>
    <g clip-path="url(#pedd27e8557)">
     <use xlink:href="#m82aee0bb7c" x="75.190625" y="48.778339" style="fill: #0000ff; stroke: #0000ff"/>
     <use xlink:href="#m82aee0bb7c" x="160.990625" y="48.778339" style="fill: #0000ff; stroke: #0000ff"/>
    </g>
   </g>
   <g id="PathCollection_4">
    <defs>
     <path id="md693c50b9b" d="M 0 -3 
L -0.673542 -0.927051 
L -2.85317 -0.927051 
L -1.089814 0.354102 
L -1.763356 2.427051 
L -0 1.145898 
L 1.763356 2.427051 
L 1.089814 0.354102 
L 2.85317 -0.927051 
L 0.673542 -0.927051 
z
" style="stroke: #bf00bf"/>
    </defs>
    <g clip-path="url(#pedd27e8557)">
     <use xlink:href="#md693c50b9b" x="190.240625" y="12.623262" style="fill: #bf00bf; stroke: #bf00bf"/>
    </g>
   </g>
   <g id="matplotlib.axis_1">
    <g id="xtick_1">
     <g id="line2d_1">
      <path d="M 35.215625 151.82031 
L 35.215625 7.2 
" clip-path="url(#pedd27e8557)" style="fill: none; stroke: #b0b0b0; stroke-width: 0.1; stroke-linecap: square"/>
     </g>
     <g id="line2d_2">
      <defs>
       <path id="mdcf89ac964" d="M 0 0 
L 0 3.5 
" style="stroke: #000000; stroke-width: 0.8"/>
      </defs>
      <g>
       <use xlink:href="#mdcf89ac964" x="35.215625" y="151.82031" style="stroke: #000000; stroke-width: 0.8"/>
      </g>
     </g>
     <g id="text_1">
      <!-- 1 -->
      <g transform="translate(32.034375 166.418747) scale(0.1 -0.1)">
       <defs>
        <path id="DejaVuSans-31" d="M 794 531 
L 1825 531 
L 1825 4091 
L 703 3866 
L 703 4441 
L 1819 4666 
L 2450 4666 
L 2450 531 
L 3481 531 
L 3481 0 
L 794 0 
L 794 531 
z
" transform="scale(0.015625)"/>
       </defs>
       <use xlink:href="#DejaVuSans-31"/>
      </g>
     </g>
    </g>
    <g id="xtick_2">
     <g id="line2d_3">
      <path d="M 81.820625 151.82031 
L 81.820625 7.2 
" clip-path="url(#pedd27e8557)" style="fill: none; stroke: #b0b0b0; stroke-width: 0.1; stroke-linecap: square"/>
     </g>
     <g id="line2d_4">
      <g>
       <use xlink:href="#mdcf89ac964" x="81.820625" y="151.82031" style="stroke: #000000; stroke-width: 0.8"/>
      </g>
     </g>
     <g id="text_2">
      <!-- 48 -->
      <g transform="translate(75.458125 166.418747) scale(0.1 -0.1)">
       <defs>
        <path id="DejaVuSans-34" d="M 2419 4116 
L 825 1625 
L 2419 1625 
L 2419 4116 
z
M 2253 4666 
L 3047 4666 
L 3047 1625 
L 3713 1625 
L 3713 1100 
L 3047 1100 
L 3047 0 
L 2419 0 
L 2419 1100 
L 313 1100 
L 313 1709 
L 2253 4666 
z
" transform="scale(0.015625)"/>
        <path id="DejaVuSans-38" d="M 2034 2216 
Q 1584 2216 1326 1975 
Q 1069 1734 1069 1313 
Q 1069 891 1326 650 
Q 1584 409 2034 409 
Q 2484 409 2743 651 
Q 3003 894 3003 1313 
Q 3003 1734 2745 1975 
Q 2488 2216 2034 2216 
z
M 1403 2484 
Q 997 2584 770 2862 
Q 544 3141 544 3541 
Q 544 4100 942 4425 
Q 1341 4750 2034 4750 
Q 2731 4750 3128 4425 
Q 3525 4100 3525 3541 
Q 3525 3141 3298 2862 
Q 3072 2584 2669 2484 
Q 3125 2378 3379 2068 
Q 3634 1759 3634 1313 
Q 3634 634 3220 271 
Q 2806 -91 2034 -91 
Q 1263 -91 848 271 
Q 434 634 434 1313 
Q 434 1759 690 2068 
Q 947 2378 1403 2484 
z
M 1172 3481 
Q 1172 3119 1398 2916 
Q 1625 2713 2034 2713 
Q 2441 2713 2670 2916 
Q 2900 3119 2900 3481 
Q 2900 3844 2670 4047 
Q 2441 4250 2034 4250 
Q 1625 4250 1398 4047 
Q 1172 3844 1172 3481 
z
" transform="scale(0.015625)"/>
       </defs>
       <use xlink:href="#DejaVuSans-34"/>
       <use xlink:href="#DejaVuSans-38" x="63.623047"/>
      </g>
     </g>
    </g>
    <g id="xtick_3">
     <g id="line2d_5">
      <path d="M 128.425625 151.82031 
L 128.425625 7.2 
" clip-path="url(#pedd27e8557)" style="fill: none; stroke: #b0b0b0; stroke-width: 0.1; stroke-linecap: square"/>
     </g>
     <g id="line2d_6">
      <g>
       <use xlink:href="#mdcf89ac964" x="128.425625" y="151.82031" style="stroke: #000000; stroke-width: 0.8"/>
      </g>
     </g>
     <g id="text_3">
      <!-- 96 -->
      <g transform="translate(122.063125 166.418747) scale(0.1 -0.1)">
       <defs>
        <path id="DejaVuSans-39" d="M 703 97 
L 703 672 
Q 941 559 1184 500 
Q 1428 441 1663 441 
Q 2288 441 2617 861 
Q 2947 1281 2994 2138 
Q 2813 1869 2534 1725 
Q 2256 1581 1919 1581 
Q 1219 1581 811 2004 
Q 403 2428 403 3163 
Q 403 3881 828 4315 
Q 1253 4750 1959 4750 
Q 2769 4750 3195 4129 
Q 3622 3509 3622 2328 
Q 3622 1225 3098 567 
Q 2575 -91 1691 -91 
Q 1453 -91 1209 -44 
Q 966 3 703 97 
z
M 1959 2075 
Q 2384 2075 2632 2365 
Q 2881 2656 2881 3163 
Q 2881 3666 2632 3958 
Q 2384 4250 1959 4250 
Q 1534 4250 1286 3958 
Q 1038 3666 1038 3163 
Q 1038 2656 1286 2365 
Q 1534 2075 1959 2075 
z
" transform="scale(0.015625)"/>
        <path id="DejaVuSans-36" d="M 2113 2584 
Q 1688 2584 1439 2293 
Q 1191 2003 1191 1497 
Q 1191 994 1439 701 
Q 1688 409 2113 409 
Q 2538 409 2786 701 
Q 3034 994 3034 1497 
Q 3034 2003 2786 2293 
Q 2538 2584 2113 2584 
z
M 3366 4563 
L 3366 3988 
Q 3128 4100 2886 4159 
Q 2644 4219 2406 4219 
Q 1781 4219 1451 3797 
Q 1122 3375 1075 2522 
Q 1259 2794 1537 2939 
Q 1816 3084 2150 3084 
Q 2853 3084 3261 2657 
Q 3669 2231 3669 1497 
Q 3669 778 3244 343 
Q 2819 -91 2113 -91 
Q 1303 -91 875 529 
Q 447 1150 447 2328 
Q 447 3434 972 4092 
Q 1497 4750 2381 4750 
Q 2619 4750 2861 4703 
Q 3103 4656 3366 4563 
z
" transform="scale(0.015625)"/>
       </defs>
       <use xlink:href="#DejaVuSans-39"/>
       <use xlink:href="#DejaVuSans-36" x="63.623047"/>
      </g>
     </g>
    </g>
    <g id="xtick_4">
     <g id="line2d_7">
      <path d="M 175.030625 151.82031 
L 175.030625 7.2 
" clip-path="url(#pedd27e8557)" style="fill: none; stroke: #b0b0b0; stroke-width: 0.1; stroke-linecap: square"/>
     </g>
     <g id="line2d_8">
      <g>
       <use xlink:href="#mdcf89ac964" x="175.030625" y="151.82031" style="stroke: #000000; stroke-width: 0.8"/>
      </g>
     </g>
     <g id="text_4">
      <!-- 144 -->
      <g transform="translate(165.486875 166.418747) scale(0.1 -0.1)">
       <use xlink:href="#DejaVuSans-31"/>
       <use xlink:href="#DejaVuSans-34" x="63.623047"/>
       <use xlink:href="#DejaVuSans-34" x="127.246094"/>
      </g>
     </g>
    </g>
    <g id="xtick_5">
     <g id="line2d_9">
      <path d="M 221.635625 151.82031 
L 221.635625 7.2 
" clip-path="url(#pedd27e8557)" style="fill: none; stroke: #b0b0b0; stroke-width: 0.1; stroke-linecap: square"/>
     </g>
     <g id="line2d_10">
      <g>
       <use xlink:href="#mdcf89ac964" x="221.635625" y="151.82031" style="stroke: #000000; stroke-width: 0.8"/>
      </g>
     </g>
     <g id="text_5">
      <!-- 192 -->
      <g transform="translate(212.091875 166.418747) scale(0.1 -0.1)">
       <defs>
        <path id="DejaVuSans-32" d="M 1228 531 
L 3431 531 
L 3431 0 
L 469 0 
L 469 531 
Q 828 903 1448 1529 
Q 2069 2156 2228 2338 
Q 2531 2678 2651 2914 
Q 2772 3150 2772 3378 
Q 2772 3750 2511 3984 
Q 2250 4219 1831 4219 
Q 1534 4219 1204 4116 
Q 875 4013 500 3803 
L 500 4441 
Q 881 4594 1212 4672 
Q 1544 4750 1819 4750 
Q 2544 4750 2975 4387 
Q 3406 4025 3406 3419 
Q 3406 3131 3298 2873 
Q 3191 2616 2906 2266 
Q 2828 2175 2409 1742 
Q 1991 1309 1228 531 
z
" transform="scale(0.015625)"/>
       </defs>
       <use xlink:href="#DejaVuSans-31"/>
       <use xlink:href="#DejaVuSans-39" x="63.623047"/>
       <use xlink:href="#DejaVuSans-32" x="127.246094"/>
      </g>
     </g>
    </g>
    <g id="xtick_6">
     <g id="line2d_11">
      <path d="M 268.240625 151.82031 
L 268.240625 7.2 
" clip-path="url(#pedd27e8557)" style="fill: none; stroke: #b0b0b0; stroke-width: 0.1; stroke-linecap: square"/>
     </g>
     <g id="line2d_12">
      <g>
       <use xlink:href="#mdcf89ac964" x="268.240625" y="151.82031" style="stroke: #000000; stroke-width: 0.8"/>
      </g>
     </g>
     <g id="text_6">
      <!-- 240 -->
      <g transform="translate(258.696875 166.418747) scale(0.1 -0.1)">
       <defs>
        <path id="DejaVuSans-30" d="M 2034 4250 
Q 1547 4250 1301 3770 
Q 1056 3291 1056 2328 
Q 1056 1369 1301 889 
Q 1547 409 2034 409 
Q 2525 409 2770 889 
Q 3016 1369 3016 2328 
Q 3016 3291 2770 3770 
Q 2525 4250 2034 4250 
z
M 2034 4750 
Q 2819 4750 3233 4129 
Q 3647 3509 3647 2328 
Q 3647 1150 3233 529 
Q 2819 -91 2034 -91 
Q 1250 -91 836 529 
Q 422 1150 422 2328 
Q 422 3509 836 4129 
Q 1250 4750 2034 4750 
z
" transform="scale(0.015625)"/>
       </defs>
       <use xlink:href="#DejaVuSans-32"/>
       <use xlink:href="#DejaVuSans-34" x="63.623047"/>
       <use xlink:href="#DejaVuSans-30" x="127.246094"/>
      </g>
     </g>
    </g>
    <g id="xtick_7">
     <g id="line2d_13">
      <path d="M 34.240625 151.82031 
L 34.240625 7.2 
" clip-path="url(#pedd27e8557)" style="fill: none; stroke: #b0b0b0; stroke-width: 0.1; stroke-linecap: square"/>
     </g>
     <g id="line2d_14">
      <defs>
       <path id="m8fec263468" d="M 0 0 
L 0 2 
" style="stroke: #000000; stroke-width: 0.6"/>
      </defs>
      <g>
       <use xlink:href="#m8fec263468" x="34.240625" y="151.82031" style="stroke: #000000; stroke-width: 0.6"/>
      </g>
     </g>
    </g>
    <g id="xtick_8">
     <g id="line2d_15">
      <path d="M 38.140625 151.82031 
L 38.140625 7.2 
" clip-path="url(#pedd27e8557)" style="fill: none; stroke: #b0b0b0; stroke-width: 0.1; stroke-linecap: square"/>
     </g>
     <g id="line2d_16">
      <g>
       <use xlink:href="#m8fec263468" x="38.140625" y="151.82031" style="stroke: #000000; stroke-width: 0.6"/>
      </g>
     </g>
    </g>
    <g id="xtick_9">
     <g id="line2d_17">
      <path d="M 42.040625 151.82031 
L 42.040625 7.2 
" clip-path="url(#pedd27e8557)" style="fill: none; stroke: #b0b0b0; stroke-width: 0.1; stroke-linecap: square"/>
     </g>
     <g id="line2d_18">
      <g>
       <use xlink:href="#m8fec263468" x="42.040625" y="151.82031" style="stroke: #000000; stroke-width: 0.6"/>
      </g>
     </g>
    </g>
    <g id="xtick_10">
     <g id="line2d_19">
      <path d="M 45.940625 151.82031 
L 45.940625 7.2 
" clip-path="url(#pedd27e8557)" style="fill: none; stroke: #b0b0b0; stroke-width: 0.1; stroke-linecap: square"/>
     </g>
     <g id="line2d_20">
      <g>
       <use xlink:href="#m8fec263468" x="45.940625" y="151.82031" style="stroke: #000000; stroke-width: 0.6"/>
      </g>
     </g>
    </g>
    <g id="xtick_11">
     <g id="line2d_21">
      <path d="M 49.840625 151.82031 
L 49.840625 7.2 
" clip-path="url(#pedd27e8557)" style="fill: none; stroke: #b0b0b0; stroke-width: 0.1; stroke-linecap: square"/>
     </g>
     <g id="line2d_22">
      <g>
       <use xlink:href="#m8fec263468" x="49.840625" y="151.82031" style="stroke: #000000; stroke-width: 0.6"/>
      </g>
     </g>
    </g>
    <g id="xtick_12">
     <g id="line2d_23">
      <path d="M 53.740625 151.82031 
L 53.740625 7.2 
" clip-path="url(#pedd27e8557)" style="fill: none; stroke: #b0b0b0; stroke-width: 0.1; stroke-linecap: square"/>
     </g>
     <g id="line2d_24">
      <g>
       <use xlink:href="#m8fec263468" x="53.740625" y="151.82031" style="stroke: #000000; stroke-width: 0.6"/>
      </g>
     </g>
    </g>
    <g id="xtick_13">
     <g id="line2d_25">
      <path d="M 57.640625 151.82031 
L 57.640625 7.2 
" clip-path="url(#pedd27e8557)" style="fill: none; stroke: #b0b0b0; stroke-width: 0.1; stroke-linecap: square"/>
     </g>
     <g id="line2d_26">
      <g>
       <use xlink:href="#m8fec263468" x="57.640625" y="151.82031" style="stroke: #000000; stroke-width: 0.6"/>
      </g>
     </g>
    </g>
    <g id="xtick_14">
     <g id="line2d_27">
      <path d="M 61.540625 151.82031 
L 61.540625 7.2 
" clip-path="url(#pedd27e8557)" style="fill: none; stroke: #b0b0b0; stroke-width: 0.1; stroke-linecap: square"/>
     </g>
     <g id="line2d_28">
      <g>
       <use xlink:href="#m8fec263468" x="61.540625" y="151.82031" style="stroke: #000000; stroke-width: 0.6"/>
      </g>
     </g>
    </g>
    <g id="xtick_15">
     <g id="line2d_29">
      <path d="M 65.440625 151.82031 
L 65.440625 7.2 
" clip-path="url(#pedd27e8557)" style="fill: none; stroke: #b0b0b0; stroke-width: 0.1; stroke-linecap: square"/>
     </g>
     <g id="line2d_30">
      <g>
       <use xlink:href="#m8fec263468" x="65.440625" y="151.82031" style="stroke: #000000; stroke-width: 0.6"/>
      </g>
     </g>
    </g>
    <g id="xtick_16">
     <g id="line2d_31">
      <path d="M 69.340625 151.82031 
L 69.340625 7.2 
" clip-path="url(#pedd27e8557)" style="fill: none; stroke: #b0b0b0; stroke-width: 0.1; stroke-linecap: square"/>
     </g>
     <g id="line2d_32">
      <g>
       <use xlink:href="#m8fec263468" x="69.340625" y="151.82031" style="stroke: #000000; stroke-width: 0.6"/>
      </g>
     </g>
    </g>
    <g id="xtick_17">
     <g id="line2d_33">
      <path d="M 73.240625 151.82031 
L 73.240625 7.2 
" clip-path="url(#pedd27e8557)" style="fill: none; stroke: #b0b0b0; stroke-width: 0.1; stroke-linecap: square"/>
     </g>
     <g id="line2d_34">
      <g>
       <use xlink:href="#m8fec263468" x="73.240625" y="151.82031" style="stroke: #000000; stroke-width: 0.6"/>
      </g>
     </g>
    </g>
    <g id="xtick_18">
     <g id="line2d_35">
      <path d="M 77.140625 151.82031 
L 77.140625 7.2 
" clip-path="url(#pedd27e8557)" style="fill: none; stroke: #b0b0b0; stroke-width: 0.1; stroke-linecap: square"/>
     </g>
     <g id="line2d_36">
      <g>
       <use xlink:href="#m8fec263468" x="77.140625" y="151.82031" style="stroke: #000000; stroke-width: 0.6"/>
      </g>
     </g>
    </g>
    <g id="xtick_19">
     <g id="line2d_37">
      <path d="M 81.040625 151.82031 
L 81.040625 7.2 
" clip-path="url(#pedd27e8557)" style="fill: none; stroke: #b0b0b0; stroke-width: 0.1; stroke-linecap: square"/>
     </g>
     <g id="line2d_38">
      <g>
       <use xlink:href="#m8fec263468" x="81.040625" y="151.82031" style="stroke: #000000; stroke-width: 0.6"/>
      </g>
     </g>
    </g>
    <g id="xtick_20">
     <g id="line2d_39">
      <path d="M 84.940625 151.82031 
L 84.940625 7.2 
" clip-path="url(#pedd27e8557)" style="fill: none; stroke: #b0b0b0; stroke-width: 0.1; stroke-linecap: square"/>
     </g>
     <g id="line2d_40">
      <g>
       <use xlink:href="#m8fec263468" x="84.940625" y="151.82031" style="stroke: #000000; stroke-width: 0.6"/>
      </g>
     </g>
    </g>
    <g id="xtick_21">
     <g id="line2d_41">
      <path d="M 88.840625 151.82031 
L 88.840625 7.2 
" clip-path="url(#pedd27e8557)" style="fill: none; stroke: #b0b0b0; stroke-width: 0.1; stroke-linecap: square"/>
     </g>
     <g id="line2d_42">
      <g>
       <use xlink:href="#m8fec263468" x="88.840625" y="151.82031" style="stroke: #000000; stroke-width: 0.6"/>
      </g>
     </g>
    </g>
    <g id="xtick_22">
     <g id="line2d_43">
      <path d="M 92.740625 151.82031 
L 92.740625 7.2 
" clip-path="url(#pedd27e8557)" style="fill: none; stroke: #b0b0b0; stroke-width: 0.1; stroke-linecap: square"/>
     </g>
     <g id="line2d_44">
      <g>
       <use xlink:href="#m8fec263468" x="92.740625" y="151.82031" style="stroke: #000000; stroke-width: 0.6"/>
      </g>
     </g>
    </g>
    <g id="xtick_23">
     <g id="line2d_45">
      <path d="M 96.640625 151.82031 
L 96.640625 7.2 
" clip-path="url(#pedd27e8557)" style="fill: none; stroke: #b0b0b0; stroke-width: 0.1; stroke-linecap: square"/>
     </g>
     <g id="line2d_46">
      <g>
       <use xlink:href="#m8fec263468" x="96.640625" y="151.82031" style="stroke: #000000; stroke-width: 0.6"/>
      </g>
     </g>
    </g>
    <g id="xtick_24">
     <g id="line2d_47">
      <path d="M 100.540625 151.82031 
L 100.540625 7.2 
" clip-path="url(#pedd27e8557)" style="fill: none; stroke: #b0b0b0; stroke-width: 0.1; stroke-linecap: square"/>
     </g>
     <g id="line2d_48">
      <g>
       <use xlink:href="#m8fec263468" x="100.540625" y="151.82031" style="stroke: #000000; stroke-width: 0.6"/>
      </g>
     </g>
    </g>
    <g id="xtick_25">
     <g id="line2d_49">
      <path d="M 104.440625 151.82031 
L 104.440625 7.2 
" clip-path="url(#pedd27e8557)" style="fill: none; stroke: #b0b0b0; stroke-width: 0.1; stroke-linecap: square"/>
     </g>
     <g id="line2d_50">
      <g>
       <use xlink:href="#m8fec263468" x="104.440625" y="151.82031" style="stroke: #000000; stroke-width: 0.6"/>
      </g>
     </g>
    </g>
    <g id="xtick_26">
     <g id="line2d_51">
      <path d="M 108.340625 151.82031 
L 108.340625 7.2 
" clip-path="url(#pedd27e8557)" style="fill: none; stroke: #b0b0b0; stroke-width: 0.1; stroke-linecap: square"/>
     </g>
     <g id="line2d_52">
      <g>
       <use xlink:href="#m8fec263468" x="108.340625" y="151.82031" style="stroke: #000000; stroke-width: 0.6"/>
      </g>
     </g>
    </g>
    <g id="xtick_27">
     <g id="line2d_53">
      <path d="M 112.240625 151.82031 
L 112.240625 7.2 
" clip-path="url(#pedd27e8557)" style="fill: none; stroke: #b0b0b0; stroke-width: 0.1; stroke-linecap: square"/>
     </g>
     <g id="line2d_54">
      <g>
       <use xlink:href="#m8fec263468" x="112.240625" y="151.82031" style="stroke: #000000; stroke-width: 0.6"/>
      </g>
     </g>
    </g>
    <g id="xtick_28">
     <g id="line2d_55">
      <path d="M 116.140625 151.82031 
L 116.140625 7.2 
" clip-path="url(#pedd27e8557)" style="fill: none; stroke: #b0b0b0; stroke-width: 0.1; stroke-linecap: square"/>
     </g>
     <g id="line2d_56">
      <g>
       <use xlink:href="#m8fec263468" x="116.140625" y="151.82031" style="stroke: #000000; stroke-width: 0.6"/>
      </g>
     </g>
    </g>
    <g id="xtick_29">
     <g id="line2d_57">
      <path d="M 120.040625 151.82031 
L 120.040625 7.2 
" clip-path="url(#pedd27e8557)" style="fill: none; stroke: #b0b0b0; stroke-width: 0.1; stroke-linecap: square"/>
     </g>
     <g id="line2d_58">
      <g>
       <use xlink:href="#m8fec263468" x="120.040625" y="151.82031" style="stroke: #000000; stroke-width: 0.6"/>
      </g>
     </g>
    </g>
    <g id="xtick_30">
     <g id="line2d_59">
      <path d="M 123.940625 151.82031 
L 123.940625 7.2 
" clip-path="url(#pedd27e8557)" style="fill: none; stroke: #b0b0b0; stroke-width: 0.1; stroke-linecap: square"/>
     </g>
     <g id="line2d_60">
      <g>
       <use xlink:href="#m8fec263468" x="123.940625" y="151.82031" style="stroke: #000000; stroke-width: 0.6"/>
      </g>
     </g>
    </g>
    <g id="xtick_31">
     <g id="line2d_61">
      <path d="M 127.840625 151.82031 
L 127.840625 7.2 
" clip-path="url(#pedd27e8557)" style="fill: none; stroke: #b0b0b0; stroke-width: 0.1; stroke-linecap: square"/>
     </g>
     <g id="line2d_62">
      <g>
       <use xlink:href="#m8fec263468" x="127.840625" y="151.82031" style="stroke: #000000; stroke-width: 0.6"/>
      </g>
     </g>
    </g>
    <g id="xtick_32">
     <g id="line2d_63">
      <path d="M 131.740625 151.82031 
L 131.740625 7.2 
" clip-path="url(#pedd27e8557)" style="fill: none; stroke: #b0b0b0; stroke-width: 0.1; stroke-linecap: square"/>
     </g>
     <g id="line2d_64">
      <g>
       <use xlink:href="#m8fec263468" x="131.740625" y="151.82031" style="stroke: #000000; stroke-width: 0.6"/>
      </g>
     </g>
    </g>
    <g id="xtick_33">
     <g id="line2d_65">
      <path d="M 135.640625 151.82031 
L 135.640625 7.2 
" clip-path="url(#pedd27e8557)" style="fill: none; stroke: #b0b0b0; stroke-width: 0.1; stroke-linecap: square"/>
     </g>
     <g id="line2d_66">
      <g>
       <use xlink:href="#m8fec263468" x="135.640625" y="151.82031" style="stroke: #000000; stroke-width: 0.6"/>
      </g>
     </g>
    </g>
    <g id="xtick_34">
     <g id="line2d_67">
      <path d="M 139.540625 151.82031 
L 139.540625 7.2 
" clip-path="url(#pedd27e8557)" style="fill: none; stroke: #b0b0b0; stroke-width: 0.1; stroke-linecap: square"/>
     </g>
     <g id="line2d_68">
      <g>
       <use xlink:href="#m8fec263468" x="139.540625" y="151.82031" style="stroke: #000000; stroke-width: 0.6"/>
      </g>
     </g>
    </g>
    <g id="xtick_35">
     <g id="line2d_69">
      <path d="M 143.440625 151.82031 
L 143.440625 7.2 
" clip-path="url(#pedd27e8557)" style="fill: none; stroke: #b0b0b0; stroke-width: 0.1; stroke-linecap: square"/>
     </g>
     <g id="line2d_70">
      <g>
       <use xlink:href="#m8fec263468" x="143.440625" y="151.82031" style="stroke: #000000; stroke-width: 0.6"/>
      </g>
     </g>
    </g>
    <g id="xtick_36">
     <g id="line2d_71">
      <path d="M 147.340625 151.82031 
L 147.340625 7.2 
" clip-path="url(#pedd27e8557)" style="fill: none; stroke: #b0b0b0; stroke-width: 0.1; stroke-linecap: square"/>
     </g>
     <g id="line2d_72">
      <g>
       <use xlink:href="#m8fec263468" x="147.340625" y="151.82031" style="stroke: #000000; stroke-width: 0.6"/>
      </g>
     </g>
    </g>
    <g id="xtick_37">
     <g id="line2d_73">
      <path d="M 151.240625 151.82031 
L 151.240625 7.2 
" clip-path="url(#pedd27e8557)" style="fill: none; stroke: #b0b0b0; stroke-width: 0.1; stroke-linecap: square"/>
     </g>
     <g id="line2d_74">
      <g>
       <use xlink:href="#m8fec263468" x="151.240625" y="151.82031" style="stroke: #000000; stroke-width: 0.6"/>
      </g>
     </g>
    </g>
    <g id="xtick_38">
     <g id="line2d_75">
      <path d="M 155.140625 151.82031 
L 155.140625 7.2 
" clip-path="url(#pedd27e8557)" style="fill: none; stroke: #b0b0b0; stroke-width: 0.1; stroke-linecap: square"/>
     </g>
     <g id="line2d_76">
      <g>
       <use xlink:href="#m8fec263468" x="155.140625" y="151.82031" style="stroke: #000000; stroke-width: 0.6"/>
      </g>
     </g>
    </g>
    <g id="xtick_39">
     <g id="line2d_77">
      <path d="M 159.040625 151.82031 
L 159.040625 7.2 
" clip-path="url(#pedd27e8557)" style="fill: none; stroke: #b0b0b0; stroke-width: 0.1; stroke-linecap: square"/>
     </g>
     <g id="line2d_78">
      <g>
       <use xlink:href="#m8fec263468" x="159.040625" y="151.82031" style="stroke: #000000; stroke-width: 0.6"/>
      </g>
     </g>
    </g>
    <g id="xtick_40">
     <g id="line2d_79">
      <path d="M 162.940625 151.82031 
L 162.940625 7.2 
" clip-path="url(#pedd27e8557)" style="fill: none; stroke: #b0b0b0; stroke-width: 0.1; stroke-linecap: square"/>
     </g>
     <g id="line2d_80">
      <g>
       <use xlink:href="#m8fec263468" x="162.940625" y="151.82031" style="stroke: #000000; stroke-width: 0.6"/>
      </g>
     </g>
    </g>
    <g id="xtick_41">
     <g id="line2d_81">
      <path d="M 166.840625 151.82031 
L 166.840625 7.2 
" clip-path="url(#pedd27e8557)" style="fill: none; stroke: #b0b0b0; stroke-width: 0.1; stroke-linecap: square"/>
     </g>
     <g id="line2d_82">
      <g>
       <use xlink:href="#m8fec263468" x="166.840625" y="151.82031" style="stroke: #000000; stroke-width: 0.6"/>
      </g>
     </g>
    </g>
    <g id="xtick_42">
     <g id="line2d_83">
      <path d="M 170.740625 151.82031 
L 170.740625 7.2 
" clip-path="url(#pedd27e8557)" style="fill: none; stroke: #b0b0b0; stroke-width: 0.1; stroke-linecap: square"/>
     </g>
     <g id="line2d_84">
      <g>
       <use xlink:href="#m8fec263468" x="170.740625" y="151.82031" style="stroke: #000000; stroke-width: 0.6"/>
      </g>
     </g>
    </g>
    <g id="xtick_43">
     <g id="line2d_85">
      <path d="M 174.640625 151.82031 
L 174.640625 7.2 
" clip-path="url(#pedd27e8557)" style="fill: none; stroke: #b0b0b0; stroke-width: 0.1; stroke-linecap: square"/>
     </g>
     <g id="line2d_86">
      <g>
       <use xlink:href="#m8fec263468" x="174.640625" y="151.82031" style="stroke: #000000; stroke-width: 0.6"/>
      </g>
     </g>
    </g>
    <g id="xtick_44">
     <g id="line2d_87">
      <path d="M 178.540625 151.82031 
L 178.540625 7.2 
" clip-path="url(#pedd27e8557)" style="fill: none; stroke: #b0b0b0; stroke-width: 0.1; stroke-linecap: square"/>
     </g>
     <g id="line2d_88">
      <g>
       <use xlink:href="#m8fec263468" x="178.540625" y="151.82031" style="stroke: #000000; stroke-width: 0.6"/>
      </g>
     </g>
    </g>
    <g id="xtick_45">
     <g id="line2d_89">
      <path d="M 182.440625 151.82031 
L 182.440625 7.2 
" clip-path="url(#pedd27e8557)" style="fill: none; stroke: #b0b0b0; stroke-width: 0.1; stroke-linecap: square"/>
     </g>
     <g id="line2d_90">
      <g>
       <use xlink:href="#m8fec263468" x="182.440625" y="151.82031" style="stroke: #000000; stroke-width: 0.6"/>
      </g>
     </g>
    </g>
    <g id="xtick_46">
     <g id="line2d_91">
      <path d="M 186.340625 151.82031 
L 186.340625 7.2 
" clip-path="url(#pedd27e8557)" style="fill: none; stroke: #b0b0b0; stroke-width: 0.1; stroke-linecap: square"/>
     </g>
     <g id="line2d_92">
      <g>
       <use xlink:href="#m8fec263468" x="186.340625" y="151.82031" style="stroke: #000000; stroke-width: 0.6"/>
      </g>
     </g>
    </g>
    <g id="xtick_47">
     <g id="line2d_93">
      <path d="M 190.240625 151.82031 
L 190.240625 7.2 
" clip-path="url(#pedd27e8557)" style="fill: none; stroke: #b0b0b0; stroke-width: 0.1; stroke-linecap: square"/>
     </g>
     <g id="line2d_94">
      <g>
       <use xlink:href="#m8fec263468" x="190.240625" y="151.82031" style="stroke: #000000; stroke-width: 0.6"/>
      </g>
     </g>
    </g>
    <g id="xtick_48">
     <g id="line2d_95">
      <path d="M 194.140625 151.82031 
L 194.140625 7.2 
" clip-path="url(#pedd27e8557)" style="fill: none; stroke: #b0b0b0; stroke-width: 0.1; stroke-linecap: square"/>
     </g>
     <g id="line2d_96">
      <g>
       <use xlink:href="#m8fec263468" x="194.140625" y="151.82031" style="stroke: #000000; stroke-width: 0.6"/>
      </g>
     </g>
    </g>
    <g id="xtick_49">
     <g id="line2d_97">
      <path d="M 198.040625 151.82031 
L 198.040625 7.2 
" clip-path="url(#pedd27e8557)" style="fill: none; stroke: #b0b0b0; stroke-width: 0.1; stroke-linecap: square"/>
     </g>
     <g id="line2d_98">
      <g>
       <use xlink:href="#m8fec263468" x="198.040625" y="151.82031" style="stroke: #000000; stroke-width: 0.6"/>
      </g>
     </g>
    </g>
    <g id="xtick_50">
     <g id="line2d_99">
      <path d="M 201.940625 151.82031 
L 201.940625 7.2 
" clip-path="url(#pedd27e8557)" style="fill: none; stroke: #b0b0b0; stroke-width: 0.1; stroke-linecap: square"/>
     </g>
     <g id="line2d_100">
      <g>
       <use xlink:href="#m8fec263468" x="201.940625" y="151.82031" style="stroke: #000000; stroke-width: 0.6"/>
      </g>
     </g>
    </g>
    <g id="xtick_51">
     <g id="line2d_101">
      <path d="M 205.840625 151.82031 
L 205.840625 7.2 
" clip-path="url(#pedd27e8557)" style="fill: none; stroke: #b0b0b0; stroke-width: 0.1; stroke-linecap: square"/>
     </g>
     <g id="line2d_102">
      <g>
       <use xlink:href="#m8fec263468" x="205.840625" y="151.82031" style="stroke: #000000; stroke-width: 0.6"/>
      </g>
     </g>
    </g>
    <g id="xtick_52">
     <g id="line2d_103">
      <path d="M 209.740625 151.82031 
L 209.740625 7.2 
" clip-path="url(#pedd27e8557)" style="fill: none; stroke: #b0b0b0; stroke-width: 0.1; stroke-linecap: square"/>
     </g>
     <g id="line2d_104">
      <g>
       <use xlink:href="#m8fec263468" x="209.740625" y="151.82031" style="stroke: #000000; stroke-width: 0.6"/>
      </g>
     </g>
    </g>
    <g id="xtick_53">
     <g id="line2d_105">
      <path d="M 213.640625 151.82031 
L 213.640625 7.2 
" clip-path="url(#pedd27e8557)" style="fill: none; stroke: #b0b0b0; stroke-width: 0.1; stroke-linecap: square"/>
     </g>
     <g id="line2d_106">
      <g>
       <use xlink:href="#m8fec263468" x="213.640625" y="151.82031" style="stroke: #000000; stroke-width: 0.6"/>
      </g>
     </g>
    </g>
    <g id="xtick_54">
     <g id="line2d_107">
      <path d="M 217.540625 151.82031 
L 217.540625 7.2 
" clip-path="url(#pedd27e8557)" style="fill: none; stroke: #b0b0b0; stroke-width: 0.1; stroke-linecap: square"/>
     </g>
     <g id="line2d_108">
      <g>
       <use xlink:href="#m8fec263468" x="217.540625" y="151.82031" style="stroke: #000000; stroke-width: 0.6"/>
      </g>
     </g>
    </g>
    <g id="xtick_55">
     <g id="line2d_109">
      <path d="M 221.440625 151.82031 
L 221.440625 7.2 
" clip-path="url(#pedd27e8557)" style="fill: none; stroke: #b0b0b0; stroke-width: 0.1; stroke-linecap: square"/>
     </g>
     <g id="line2d_110">
      <g>
       <use xlink:href="#m8fec263468" x="221.440625" y="151.82031" style="stroke: #000000; stroke-width: 0.6"/>
      </g>
     </g>
    </g>
    <g id="xtick_56">
     <g id="line2d_111">
      <path d="M 225.340625 151.82031 
L 225.340625 7.2 
" clip-path="url(#pedd27e8557)" style="fill: none; stroke: #b0b0b0; stroke-width: 0.1; stroke-linecap: square"/>
     </g>
     <g id="line2d_112">
      <g>
       <use xlink:href="#m8fec263468" x="225.340625" y="151.82031" style="stroke: #000000; stroke-width: 0.6"/>
      </g>
     </g>
    </g>
    <g id="xtick_57">
     <g id="line2d_113">
      <path d="M 229.240625 151.82031 
L 229.240625 7.2 
" clip-path="url(#pedd27e8557)" style="fill: none; stroke: #b0b0b0; stroke-width: 0.1; stroke-linecap: square"/>
     </g>
     <g id="line2d_114">
      <g>
       <use xlink:href="#m8fec263468" x="229.240625" y="151.82031" style="stroke: #000000; stroke-width: 0.6"/>
      </g>
     </g>
    </g>
    <g id="xtick_58">
     <g id="line2d_115">
      <path d="M 233.140625 151.82031 
L 233.140625 7.2 
" clip-path="url(#pedd27e8557)" style="fill: none; stroke: #b0b0b0; stroke-width: 0.1; stroke-linecap: square"/>
     </g>
     <g id="line2d_116">
      <g>
       <use xlink:href="#m8fec263468" x="233.140625" y="151.82031" style="stroke: #000000; stroke-width: 0.6"/>
      </g>
     </g>
    </g>
    <g id="xtick_59">
     <g id="line2d_117">
      <path d="M 237.040625 151.82031 
L 237.040625 7.2 
" clip-path="url(#pedd27e8557)" style="fill: none; stroke: #b0b0b0; stroke-width: 0.1; stroke-linecap: square"/>
     </g>
     <g id="line2d_118">
      <g>
       <use xlink:href="#m8fec263468" x="237.040625" y="151.82031" style="stroke: #000000; stroke-width: 0.6"/>
      </g>
     </g>
    </g>
    <g id="xtick_60">
     <g id="line2d_119">
      <path d="M 240.940625 151.82031 
L 240.940625 7.2 
" clip-path="url(#pedd27e8557)" style="fill: none; stroke: #b0b0b0; stroke-width: 0.1; stroke-linecap: square"/>
     </g>
     <g id="line2d_120">
      <g>
       <use xlink:href="#m8fec263468" x="240.940625" y="151.82031" style="stroke: #000000; stroke-width: 0.6"/>
      </g>
     </g>
    </g>
    <g id="xtick_61">
     <g id="line2d_121">
      <path d="M 244.840625 151.82031 
L 244.840625 7.2 
" clip-path="url(#pedd27e8557)" style="fill: none; stroke: #b0b0b0; stroke-width: 0.1; stroke-linecap: square"/>
     </g>
     <g id="line2d_122">
      <g>
       <use xlink:href="#m8fec263468" x="244.840625" y="151.82031" style="stroke: #000000; stroke-width: 0.6"/>
      </g>
     </g>
    </g>
    <g id="xtick_62">
     <g id="line2d_123">
      <path d="M 248.740625 151.82031 
L 248.740625 7.2 
" clip-path="url(#pedd27e8557)" style="fill: none; stroke: #b0b0b0; stroke-width: 0.1; stroke-linecap: square"/>
     </g>
     <g id="line2d_124">
      <g>
       <use xlink:href="#m8fec263468" x="248.740625" y="151.82031" style="stroke: #000000; stroke-width: 0.6"/>
      </g>
     </g>
    </g>
    <g id="xtick_63">
     <g id="line2d_125">
      <path d="M 252.640625 151.82031 
L 252.640625 7.2 
" clip-path="url(#pedd27e8557)" style="fill: none; stroke: #b0b0b0; stroke-width: 0.1; stroke-linecap: square"/>
     </g>
     <g id="line2d_126">
      <g>
       <use xlink:href="#m8fec263468" x="252.640625" y="151.82031" style="stroke: #000000; stroke-width: 0.6"/>
      </g>
     </g>
    </g>
    <g id="xtick_64">
     <g id="line2d_127">
      <path d="M 256.540625 151.82031 
L 256.540625 7.2 
" clip-path="url(#pedd27e8557)" style="fill: none; stroke: #b0b0b0; stroke-width: 0.1; stroke-linecap: square"/>
     </g>
     <g id="line2d_128">
      <g>
       <use xlink:href="#m8fec263468" x="256.540625" y="151.82031" style="stroke: #000000; stroke-width: 0.6"/>
      </g>
     </g>
    </g>
    <g id="xtick_65">
     <g id="line2d_129">
      <path d="M 260.440625 151.82031 
L 260.440625 7.2 
" clip-path="url(#pedd27e8557)" style="fill: none; stroke: #b0b0b0; stroke-width: 0.1; stroke-linecap: square"/>
     </g>
     <g id="line2d_130">
      <g>
       <use xlink:href="#m8fec263468" x="260.440625" y="151.82031" style="stroke: #000000; stroke-width: 0.6"/>
      </g>
     </g>
    </g>
    <g id="xtick_66">
     <g id="line2d_131">
      <path d="M 264.340625 151.82031 
L 264.340625 7.2 
" clip-path="url(#pedd27e8557)" style="fill: none; stroke: #b0b0b0; stroke-width: 0.1; stroke-linecap: square"/>
     </g>
     <g id="line2d_132">
      <g>
       <use xlink:href="#m8fec263468" x="264.340625" y="151.82031" style="stroke: #000000; stroke-width: 0.6"/>
      </g>
     </g>
    </g>
    <g id="text_7">
     <!-- Time (a. u.) -->
     <g transform="translate(122.516406 180.096872) scale(0.1 -0.1)">
      <defs>
       <path id="DejaVuSans-54" d="M -19 4666 
L 3928 4666 
L 3928 4134 
L 2272 4134 
L 2272 0 
L 1638 0 
L 1638 4134 
L -19 4134 
L -19 4666 
z
" transform="scale(0.015625)"/>
       <path id="DejaVuSans-69" d="M 603 3500 
L 1178 3500 
L 1178 0 
L 603 0 
L 603 3500 
z
M 603 4863 
L 1178 4863 
L 1178 4134 
L 603 4134 
L 603 4863 
z
" transform="scale(0.015625)"/>
       <path id="DejaVuSans-6d" d="M 3328 2828 
Q 3544 3216 3844 3400 
Q 4144 3584 4550 3584 
Q 5097 3584 5394 3201 
Q 5691 2819 5691 2113 
L 5691 0 
L 5113 0 
L 5113 2094 
Q 5113 2597 4934 2840 
Q 4756 3084 4391 3084 
Q 3944 3084 3684 2787 
Q 3425 2491 3425 1978 
L 3425 0 
L 2847 0 
L 2847 2094 
Q 2847 2600 2669 2842 
Q 2491 3084 2119 3084 
Q 1678 3084 1418 2786 
Q 1159 2488 1159 1978 
L 1159 0 
L 581 0 
L 581 3500 
L 1159 3500 
L 1159 2956 
Q 1356 3278 1631 3431 
Q 1906 3584 2284 3584 
Q 2666 3584 2933 3390 
Q 3200 3197 3328 2828 
z
" transform="scale(0.015625)"/>
       <path id="DejaVuSans-65" d="M 3597 1894 
L 3597 1613 
L 953 1613 
Q 991 1019 1311 708 
Q 1631 397 2203 397 
Q 2534 397 2845 478 
Q 3156 559 3463 722 
L 3463 178 
Q 3153 47 2828 -22 
Q 2503 -91 2169 -91 
Q 1331 -91 842 396 
Q 353 884 353 1716 
Q 353 2575 817 3079 
Q 1281 3584 2069 3584 
Q 2775 3584 3186 3129 
Q 3597 2675 3597 1894 
z
M 3022 2063 
Q 3016 2534 2758 2815 
Q 2500 3097 2075 3097 
Q 1594 3097 1305 2825 
Q 1016 2553 972 2059 
L 3022 2063 
z
" transform="scale(0.015625)"/>
       <path id="DejaVuSans-20" transform="scale(0.015625)"/>
       <path id="DejaVuSans-28" d="M 1984 4856 
Q 1566 4138 1362 3434 
Q 1159 2731 1159 2009 
Q 1159 1288 1364 580 
Q 1569 -128 1984 -844 
L 1484 -844 
Q 1016 -109 783 600 
Q 550 1309 550 2009 
Q 550 2706 781 3412 
Q 1013 4119 1484 4856 
L 1984 4856 
z
" transform="scale(0.015625)"/>
       <path id="DejaVuSans-61" d="M 2194 1759 
Q 1497 1759 1228 1600 
Q 959 1441 959 1056 
Q 959 750 1161 570 
Q 1363 391 1709 391 
Q 2188 391 2477 730 
Q 2766 1069 2766 1631 
L 2766 1759 
L 2194 1759 
z
M 3341 1997 
L 3341 0 
L 2766 0 
L 2766 531 
Q 2569 213 2275 61 
Q 1981 -91 1556 -91 
Q 1019 -91 701 211 
Q 384 513 384 1019 
Q 384 1609 779 1909 
Q 1175 2209 1959 2209 
L 2766 2209 
L 2766 2266 
Q 2766 2663 2505 2880 
Q 2244 3097 1772 3097 
Q 1472 3097 1187 3025 
Q 903 2953 641 2809 
L 641 3341 
Q 956 3463 1253 3523 
Q 1550 3584 1831 3584 
Q 2591 3584 2966 3190 
Q 3341 2797 3341 1997 
z
" transform="scale(0.015625)"/>
       <path id="DejaVuSans-2e" d="M 684 794 
L 1344 794 
L 1344 0 
L 684 0 
L 684 794 
z
" transform="scale(0.015625)"/>
       <path id="DejaVuSans-75" d="M 544 1381 
L 544 3500 
L 1119 3500 
L 1119 1403 
Q 1119 906 1312 657 
Q 1506 409 1894 409 
Q 2359 409 2629 706 
Q 2900 1003 2900 1516 
L 2900 3500 
L 3475 3500 
L 3475 0 
L 2900 0 
L 2900 538 
Q 2691 219 2414 64 
Q 2138 -91 1772 -91 
Q 1169 -91 856 284 
Q 544 659 544 1381 
z
M 1991 3584 
L 1991 3584 
z
" transform="scale(0.015625)"/>
       <path id="DejaVuSans-29" d="M 513 4856 
L 1013 4856 
Q 1481 4119 1714 3412 
Q 1947 2706 1947 2009 
Q 1947 1309 1714 600 
Q 1481 -109 1013 -844 
L 513 -844 
Q 928 -128 1133 580 
Q 1338 1288 1338 2009 
Q 1338 2731 1133 3434 
Q 928 4138 513 4856 
z
" transform="scale(0.015625)"/>
      </defs>
      <use xlink:href="#DejaVuSans-54"/>
      <use xlink:href="#DejaVuSans-69" x="57.958984"/>
      <use xlink:href="#DejaVuSans-6d" x="85.742188"/>
      <use xlink:href="#DejaVuSans-65" x="183.154297"/>
      <use xlink:href="#DejaVuSans-20" x="244.677734"/>
      <use xlink:href="#DejaVuSans-28" x="276.464844"/>
      <use xlink:href="#DejaVuSans-61" x="315.478516"/>
      <use xlink:href="#DejaVuSans-2e" x="376.757812"/>
      <use xlink:href="#DejaVuSans-20" x="408.544922"/>
      <use xlink:href="#DejaVuSans-75" x="440.332031"/>
      <use xlink:href="#DejaVuSans-2e" x="503.710938"/>
      <use xlink:href="#DejaVuSans-29" x="535.498047"/>
     </g>
    </g>
   </g>
   <g id="matplotlib.axis_2">
    <g id="ytick_1">
     <g id="line2d_133">
      <path d="M 34.240625 133.742771 
L 268.240625 133.742771 
" clip-path="url(#pedd27e8557)" style="fill: none; stroke: #b0b0b0; stroke-width: 0.5; stroke-linecap: square"/>
     </g>
     <g id="line2d_134">
      <defs>
       <path id="m2e8853f566" d="M 0 0 
L -3.5 0 
" style="stroke: #000000; stroke-width: 0.8"/>
      </defs>
      <g>
       <use xlink:href="#m2e8853f566" x="34.240625" y="133.742771" style="stroke: #000000; stroke-width: 0.8"/>
      </g>
     </g>
     <g id="text_8">
      <!-- 1 -->
      <g transform="translate(20.878125 137.54199) scale(0.1 -0.1)">
       <use xlink:href="#DejaVuSans-31"/>
      </g>
     </g>
    </g>
    <g id="ytick_2">
     <g id="line2d_135">
      <path d="M 34.240625 97.587694 
L 268.240625 97.587694 
" clip-path="url(#pedd27e8557)" style="fill: none; stroke: #b0b0b0; stroke-width: 0.5; stroke-linecap: square"/>
     </g>
     <g id="line2d_136">
      <g>
       <use xlink:href="#m2e8853f566" x="34.240625" y="97.587694" style="stroke: #000000; stroke-width: 0.8"/>
      </g>
     </g>
     <g id="text_9">
      <!-- 2 -->
      <g transform="translate(20.878125 101.386912) scale(0.1 -0.1)">
       <use xlink:href="#DejaVuSans-32"/>
      </g>
     </g>
    </g>
    <g id="ytick_3">
     <g id="line2d_137">
      <path d="M 34.240625 61.432616 
L 268.240625 61.432616 
" clip-path="url(#pedd27e8557)" style="fill: none; stroke: #b0b0b0; stroke-width: 0.5; stroke-linecap: square"/>
     </g>
     <g id="line2d_138">
      <g>
       <use xlink:href="#m2e8853f566" x="34.240625" y="61.432616" style="stroke: #000000; stroke-width: 0.8"/>
      </g>
     </g>
     <g id="text_10">
      <!-- 3 -->
      <g transform="translate(20.878125 65.231835) scale(0.1 -0.1)">
       <defs>
        <path id="DejaVuSans-33" d="M 2597 2516 
Q 3050 2419 3304 2112 
Q 3559 1806 3559 1356 
Q 3559 666 3084 287 
Q 2609 -91 1734 -91 
Q 1441 -91 1130 -33 
Q 819 25 488 141 
L 488 750 
Q 750 597 1062 519 
Q 1375 441 1716 441 
Q 2309 441 2620 675 
Q 2931 909 2931 1356 
Q 2931 1769 2642 2001 
Q 2353 2234 1838 2234 
L 1294 2234 
L 1294 2753 
L 1863 2753 
Q 2328 2753 2575 2939 
Q 2822 3125 2822 3475 
Q 2822 3834 2567 4026 
Q 2313 4219 1838 4219 
Q 1578 4219 1281 4162 
Q 984 4106 628 3988 
L 628 4550 
Q 988 4650 1302 4700 
Q 1616 4750 1894 4750 
Q 2613 4750 3031 4423 
Q 3450 4097 3450 3541 
Q 3450 3153 3228 2886 
Q 3006 2619 2597 2516 
z
" transform="scale(0.015625)"/>
       </defs>
       <use xlink:href="#DejaVuSans-33"/>
      </g>
     </g>
    </g>
    <g id="ytick_4">
     <g id="line2d_139">
      <path d="M 34.240625 25.277539 
L 268.240625 25.277539 
" clip-path="url(#pedd27e8557)" style="fill: none; stroke: #b0b0b0; stroke-width: 0.5; stroke-linecap: square"/>
     </g>
     <g id="line2d_140">
      <g>
       <use xlink:href="#m2e8853f566" x="34.240625" y="25.277539" style="stroke: #000000; stroke-width: 0.8"/>
      </g>
     </g>
     <g id="text_11">
      <!-- 4 -->
      <g transform="translate(20.878125 29.076757) scale(0.1 -0.1)">
       <use xlink:href="#DejaVuSans-34"/>
      </g>
     </g>
    </g>
    <g id="text_12">
     <!-- @ Motif -->
     <g transform="translate(14.798438 98.58203) rotate(-90) scale(0.1 -0.1)">
      <defs>
       <path id="DejaVuSans-40" d="M 2381 1678 
Q 2381 1231 2603 976 
Q 2825 722 3213 722 
Q 3597 722 3817 978 
Q 4038 1234 4038 1678 
Q 4038 2116 3813 2373 
Q 3588 2631 3206 2631 
Q 2828 2631 2604 2375 
Q 2381 2119 2381 1678 
z
M 4084 744 
Q 3897 503 3655 389 
Q 3413 275 3091 275 
Q 2553 275 2217 664 
Q 1881 1053 1881 1678 
Q 1881 2303 2218 2693 
Q 2556 3084 3091 3084 
Q 3413 3084 3656 2967 
Q 3900 2850 4084 2613 
L 4084 3022 
L 4531 3022 
L 4531 722 
Q 4988 791 5245 1139 
Q 5503 1488 5503 2041 
Q 5503 2375 5404 2669 
Q 5306 2963 5106 3213 
Q 4781 3622 4314 3839 
Q 3847 4056 3297 4056 
Q 2913 4056 2559 3954 
Q 2206 3853 1906 3653 
Q 1416 3334 1139 2817 
Q 863 2300 863 1697 
Q 863 1200 1042 765 
Q 1222 331 1563 0 
Q 1891 -325 2322 -495 
Q 2753 -666 3244 -666 
Q 3647 -666 4036 -530 
Q 4425 -394 4750 -141 
L 5031 -488 
Q 4641 -791 4180 -952 
Q 3719 -1113 3244 -1113 
Q 2666 -1113 2153 -908 
Q 1641 -703 1241 -313 
Q 841 78 631 592 
Q 422 1106 422 1697 
Q 422 2266 634 2781 
Q 847 3297 1241 3688 
Q 1644 4084 2172 4295 
Q 2700 4506 3291 4506 
Q 3953 4506 4520 4234 
Q 5088 3963 5472 3463 
Q 5706 3156 5829 2797 
Q 5953 2438 5953 2053 
Q 5953 1231 5456 756 
Q 4959 281 4084 263 
L 4084 744 
z
" transform="scale(0.015625)"/>
       <path id="DejaVuSans-4d" d="M 628 4666 
L 1569 4666 
L 2759 1491 
L 3956 4666 
L 4897 4666 
L 4897 0 
L 4281 0 
L 4281 4097 
L 3078 897 
L 2444 897 
L 1241 4097 
L 1241 0 
L 628 0 
L 628 4666 
z
" transform="scale(0.015625)"/>
       <path id="DejaVuSans-6f" d="M 1959 3097 
Q 1497 3097 1228 2736 
Q 959 2375 959 1747 
Q 959 1119 1226 758 
Q 1494 397 1959 397 
Q 2419 397 2687 759 
Q 2956 1122 2956 1747 
Q 2956 2369 2687 2733 
Q 2419 3097 1959 3097 
z
M 1959 3584 
Q 2709 3584 3137 3096 
Q 3566 2609 3566 1747 
Q 3566 888 3137 398 
Q 2709 -91 1959 -91 
Q 1206 -91 779 398 
Q 353 888 353 1747 
Q 353 2609 779 3096 
Q 1206 3584 1959 3584 
z
" transform="scale(0.015625)"/>
       <path id="DejaVuSans-74" d="M 1172 4494 
L 1172 3500 
L 2356 3500 
L 2356 3053 
L 1172 3053 
L 1172 1153 
Q 1172 725 1289 603 
Q 1406 481 1766 481 
L 2356 481 
L 2356 0 
L 1766 0 
Q 1100 0 847 248 
Q 594 497 594 1153 
L 594 3053 
L 172 3053 
L 172 3500 
L 594 3500 
L 594 4494 
L 1172 4494 
z
" transform="scale(0.015625)"/>
       <path id="DejaVuSans-66" d="M 2375 4863 
L 2375 4384 
L 1825 4384 
Q 1516 4384 1395 4259 
Q 1275 4134 1275 3809 
L 1275 3500 
L 2222 3500 
L 2222 3053 
L 1275 3053 
L 1275 0 
L 697 0 
L 697 3053 
L 147 3053 
L 147 3500 
L 697 3500 
L 697 3744 
Q 697 4328 969 4595 
Q 1241 4863 1831 4863 
L 2375 4863 
z
" transform="scale(0.015625)"/>
      </defs>
      <use xlink:href="#DejaVuSans-40"/>
      <use xlink:href="#DejaVuSans-20" x="100"/>
      <use xlink:href="#DejaVuSans-4d" x="131.787109"/>
      <use xlink:href="#DejaVuSans-6f" x="218.066406"/>
      <use xlink:href="#DejaVuSans-74" x="279.248047"/>
      <use xlink:href="#DejaVuSans-69" x="318.457031"/>
      <use xlink:href="#DejaVuSans-66" x="346.240234"/>
     </g>
    </g>
   </g>
   <g id="EventCollection_1">
    <path d="M 53.740625 119.28074 
L 53.740625 151.82031 
" clip-path="url(#pedd27e8557)" style="fill: none; stroke: #ff0000"/>
    <path d="M 121.015625 119.28074 
L 121.015625 151.82031 
" clip-path="url(#pedd27e8557)" style="fill: none; stroke: #ff0000"/>
   </g>
   <g id="EventCollection_2">
    <path d="M 102.490625 83.125663 
L 102.490625 115.665232 
" clip-path="url(#pedd27e8557)" style="fill: none; stroke: #008000"/>
    <path d="M 135.640625 83.125663 
L 135.640625 115.665232 
" clip-path="url(#pedd27e8557)" style="fill: none; stroke: #008000"/>
    <path d="M 190.240625 83.125663 
L 190.240625 115.665232 
" clip-path="url(#pedd27e8557)" style="fill: none; stroke: #008000"/>
    <path d="M 226.315625 83.125663 
L 226.315625 115.665232 
" clip-path="url(#pedd27e8557)" style="fill: none; stroke: #008000"/>
   </g>
   <g id="EventCollection_3">
    <path d="M 75.190625 46.970585 
L 75.190625 79.510155 
" clip-path="url(#pedd27e8557)" style="fill: none; stroke: #0000ff"/>
    <path d="M 160.990625 46.970585 
L 160.990625 79.510155 
" clip-path="url(#pedd27e8557)" style="fill: none; stroke: #0000ff"/>
   </g>
   <g id="EventCollection_4">
    <path d="M 190.240625 10.815508 
L 190.240625 43.355077 
" clip-path="url(#pedd27e8557)" style="fill: none; stroke: #bf00bf"/>
   </g>
   <g id="line2d_141">
    <path d="M 34.240625 133.742771 
L 44.965625 133.742771 
L 45.940625 134.13199 
L 46.915625 135.299647 
L 47.890625 131.796676 
L 48.865625 133.742771 
L 50.815625 133.742771 
L 51.790625 137.357302 
L 52.765625 148.200896 
L 53.740625 115.670116 
L 54.715625 133.742771 
L 56.665625 133.742771 
L 57.640625 134.556372 
L 58.615625 137.47226 
L 59.590625 131.575106 
L 60.565625 131.367344 
L 61.540625 133.742771 
L 69.340625 133.742771 
L 70.315625 134.13199 
L 71.290625 135.299647 
L 72.265625 131.796676 
L 73.240625 133.742771 
L 75.190625 133.742771 
L 76.165625 134.556372 
L 77.140625 136.997175 
L 78.115625 129.674766 
L 79.090625 133.742771 
L 80.065625 133.742771 
L 81.040625 134.217856 
L 82.015625 135.643112 
L 82.990625 131.367344 
L 83.965625 134.59985 
L 84.940625 137.171087 
L 85.915625 129.457378 
L 86.890625 133.742771 
L 87.865625 134.13199 
L 88.840625 135.299647 
L 89.815625 131.796676 
L 90.790625 133.742771 
L 92.740625 133.742771 
L 93.715625 134.556372 
L 94.690625 136.997175 
L 95.665625 129.674766 
L 96.640625 133.742771 
L 99.565625 133.742771 
L 100.540625 134.13199 
L 101.515625 135.299647 
L 102.490625 131.796676 
L 103.465625 133.742771 
L 104.440625 133.742771 
L 105.415625 135.679397 
L 106.390625 142.302876 
L 107.365625 127.314045 
L 108.340625 129.674766 
L 109.315625 133.742771 
L 112.240625 133.742771 
L 113.215625 134.13199 
L 114.190625 135.299647 
L 115.165625 131.796676 
L 116.140625 133.742771 
L 118.090625 133.742771 
L 119.065625 137.357302 
L 120.040625 148.200896 
L 121.015625 116.059334 
L 121.990625 135.299647 
L 122.965625 131.796676 
L 123.940625 133.742771 
L 124.915625 134.556372 
L 125.890625 136.997175 
L 126.865625 130.488367 
L 127.840625 136.997175 
L 128.815625 129.674766 
L 129.790625 133.742771 
L 132.715625 133.742771 
L 133.690625 134.13199 
L 134.665625 135.299647 
L 135.640625 131.796676 
L 136.615625 133.742771 
L 137.590625 133.742771 
L 138.565625 135.679397 
L 139.540625 142.302876 
L 140.515625 127.314045 
L 141.490625 129.674766 
L 142.465625 133.742771 
L 143.440625 133.742771 
L 144.415625 134.217856 
L 145.390625 135.643112 
L 146.365625 131.367344 
L 147.340625 133.742771 
L 155.140625 133.742771 
L 156.115625 134.13199 
L 157.090625 135.299647 
L 158.065625 131.796676 
L 159.040625 133.742771 
L 160.990625 133.742771 
L 161.965625 134.556372 
L 162.940625 136.997175 
L 163.915625 129.674766 
L 164.890625 133.742771 
L 165.865625 133.742771 
L 166.840625 134.217856 
L 167.815625 135.643112 
L 168.790625 131.367344 
L 169.765625 134.59985 
L 170.740625 137.171087 
L 171.715625 129.457378 
L 172.690625 133.742771 
L 174.640625 133.742771 
L 175.615625 134.13199 
L 176.590625 135.299647 
L 177.565625 131.796676 
L 178.540625 133.742771 
L 180.490625 133.742771 
L 181.465625 134.556372 
L 182.440625 137.861479 
L 183.415625 133.131983 
L 184.390625 129.421249 
L 185.365625 133.742771 
L 187.315625 133.742771 
L 188.290625 134.945591 
L 189.265625 138.554051 
L 190.240625 127.728671 
L 191.215625 133.742771 
L 192.190625 133.742771 
L 193.165625 135.679397 
L 194.140625 142.302876 
L 195.115625 127.314045 
L 196.090625 129.674766 
L 197.065625 133.742771 
L 210.715625 133.742771 
L 211.690625 134.13199 
L 212.665625 135.299647 
L 213.640625 131.796676 
L 214.615625 133.742771 
L 216.565625 133.742771 
L 217.540625 134.556372 
L 218.515625 136.997175 
L 219.490625 129.674766 
L 220.465625 133.742771 
L 223.390625 133.742771 
L 224.365625 134.13199 
L 225.340625 135.299647 
L 226.315625 131.796676 
L 227.290625 133.742771 
L 228.265625 133.742771 
L 229.240625 135.679397 
L 230.215625 142.302876 
L 231.190625 127.314045 
L 232.165625 129.674766 
L 233.140625 133.742771 
L 267.265625 133.742771 
L 267.265625 133.742771 
" clip-path="url(#pedd27e8557)" style="fill: none; stroke: #ff0000; stroke-opacity: 0.35; stroke-width: 1.5; stroke-linecap: square"/>
   </g>
   <g id="line2d_142">
    <path d="M 34.240625 97.587694 
L 44.965625 97.587694 
L 45.940625 97.999585 
L 46.915625 101.088974 
L 47.890625 102.943033 
L 48.865625 88.319174 
L 49.840625 97.587694 
L 50.815625 97.587694 
L 51.790625 97.999585 
L 52.765625 99.235273 
L 53.740625 95.528223 
L 54.715625 97.587694 
L 57.640625 97.587694 
L 58.615625 99.25712 
L 59.590625 104.26539 
L 60.565625 89.240571 
L 61.540625 97.587694 
L 63.490625 97.587694 
L 64.465625 99.25712 
L 65.440625 104.26539 
L 66.415625 89.240571 
L 67.390625 97.587694 
L 69.340625 97.587694 
L 70.315625 97.999585 
L 71.290625 99.235273 
L 72.265625 95.528223 
L 73.240625 98.369126 
L 74.215625 96.610905 
L 75.190625 97.587694 
L 78.115625 97.587694 
L 79.090625 98.069485 
L 80.065625 99.514864 
L 81.040625 95.178732 
L 82.015625 97.587694 
L 82.990625 99.25712 
L 83.965625 104.26539 
L 84.940625 89.240571 
L 85.915625 97.587694 
L 86.890625 97.587694 
L 87.865625 97.999585 
L 88.840625 99.235273 
L 89.815625 95.528223 
L 90.790625 97.587694 
L 98.590625 97.587694 
L 99.565625 97.872013 
L 100.540625 104.314421 
L 101.515625 119.305347 
L 102.490625 68.663633 
L 103.465625 97.587694 
L 105.415625 97.587694 
L 106.390625 98.369126 
L 107.365625 96.610905 
L 108.340625 97.587694 
L 112.240625 97.587694 
L 113.215625 99.669011 
L 114.190625 107.766675 
L 115.165625 94.59591 
L 116.140625 88.319174 
L 117.115625 97.587694 
L 118.090625 97.587694 
L 119.065625 97.999585 
L 120.040625 99.235273 
L 121.015625 95.940115 
L 121.990625 99.235273 
L 122.965625 95.528223 
L 123.940625 97.587694 
L 124.915625 97.587694 
L 125.890625 99.25712 
L 126.865625 104.26539 
L 127.840625 89.240571 
L 128.815625 98.416933 
L 129.790625 100.904656 
L 130.765625 93.441492 
L 132.715625 104.549714 
L 133.690625 95.967298 
L 134.665625 119.305347 
L 135.640625 68.663633 
L 136.615625 97.587694 
L 145.390625 97.587694 
L 146.365625 99.25712 
L 147.340625 104.26539 
L 148.315625 89.240571 
L 149.290625 97.587694 
L 155.140625 97.587694 
L 156.115625 97.999585 
L 157.090625 99.235273 
L 158.065625 95.528223 
L 159.040625 97.587694 
L 160.015625 97.587694 
L 160.990625 98.369126 
L 161.965625 97.440144 
L 162.940625 100.904656 
L 163.915625 93.441492 
L 164.890625 98.069485 
L 165.865625 99.514864 
L 166.840625 95.960165 
L 167.815625 96.610905 
L 168.790625 99.25712 
L 169.765625 104.26539 
L 170.740625 89.240571 
L 171.715625 97.587694 
L 174.640625 97.587694 
L 175.615625 97.999585 
L 176.590625 99.235273 
L 177.565625 95.528223 
L 178.540625 97.587694 
L 181.465625 97.587694 
L 182.440625 97.999585 
L 183.415625 99.235273 
L 184.390625 95.722282 
L 185.365625 98.363937 
L 186.340625 96.617387 
L 187.315625 97.872013 
L 188.290625 104.314421 
L 189.265625 119.305347 
L 190.240625 68.663633 
L 191.215625 97.587694 
L 192.190625 97.587694 
L 193.165625 97.852277 
L 195.115625 101.25116 
L 196.090625 100.119193 
L 197.065625 90.022003 
L 198.040625 96.610905 
L 199.015625 97.587694 
L 199.990625 97.587694 
L 200.965625 99.25712 
L 201.940625 104.26539 
L 202.915625 89.240571 
L 203.890625 97.587694 
L 210.715625 97.587694 
L 211.690625 97.999585 
L 212.665625 99.235273 
L 213.640625 95.528223 
L 214.615625 97.587694 
L 215.590625 97.587694 
L 216.565625 98.416933 
L 217.540625 100.904656 
L 218.515625 93.441492 
L 219.490625 97.587694 
L 222.415625 97.587694 
L 223.390625 97.872013 
L 224.365625 104.314421 
L 225.340625 119.305347 
L 226.315625 68.663633 
L 227.290625 97.587694 
L 236.065625 97.587694 
L 237.040625 99.25712 
L 238.015625 104.26539 
L 238.990625 89.240571 
L 239.965625 97.587694 
L 251.665625 97.587694 
L 252.640625 98.416933 
L 253.615625 100.904656 
L 254.590625 93.441492 
L 255.565625 97.587694 
L 267.265625 97.587694 
L 267.265625 97.587694 
" clip-path="url(#pedd27e8557)" style="fill: none; stroke: #008000; stroke-opacity: 0.35; stroke-width: 1.5; stroke-linecap: square"/>
   </g>
   <g id="line2d_143">
    <path d="M 34.240625 61.432616 
L 40.090625 61.432616 
L 41.065625 61.811726 
L 42.040625 62.949054 
L 43.015625 59.53706 
L 43.990625 61.649384 
L 44.965625 62.299689 
L 45.940625 60.348784 
L 46.915625 61.432616 
L 47.890625 61.432616 
L 48.865625 61.99666 
L 49.840625 63.688792 
L 50.815625 58.829165 
L 51.790625 62.299689 
L 52.765625 60.348784 
L 53.740625 61.432616 
L 54.715625 61.99666 
L 55.690625 63.688792 
L 56.665625 58.612397 
L 57.640625 61.432616 
L 65.440625 61.432616 
L 66.415625 62.216135 
L 67.390625 64.566691 
L 68.365625 57.515023 
L 69.340625 61.432616 
L 72.265625 61.432616 
L 73.240625 64.675209 
L 74.215625 74.402995 
L 75.190625 45.219644 
L 76.165625 61.432616 
L 89.815625 61.432616 
L 90.790625 61.99666 
L 91.765625 63.688792 
L 92.740625 58.612397 
L 93.715625 61.432616 
L 94.690625 61.811726 
L 95.665625 63.732581 
L 96.640625 62.671144 
L 97.615625 57.515023 
L 98.590625 61.432616 
L 102.490625 61.432616 
L 103.465625 61.99666 
L 104.440625 63.688792 
L 105.415625 58.612397 
L 106.390625 61.432616 
L 107.365625 61.432616 
L 108.340625 61.811726 
L 109.315625 62.949054 
L 110.290625 59.53706 
L 111.265625 61.649384 
L 112.240625 62.299689 
L 113.215625 60.348784 
L 114.190625 61.432616 
L 115.165625 61.432616 
L 116.140625 61.99666 
L 117.115625 63.688792 
L 118.090625 58.612397 
L 119.065625 61.432616 
L 121.015625 61.432616 
L 121.990625 61.99666 
L 122.965625 63.688792 
L 123.940625 59.176441 
L 124.915625 63.688792 
L 125.890625 58.612397 
L 126.865625 61.432616 
L 127.840625 61.811726 
L 128.815625 62.949054 
L 129.790625 59.53706 
L 130.765625 61.432616 
L 132.715625 61.432616 
L 133.690625 62.216135 
L 134.665625 64.566691 
L 135.640625 57.515023 
L 136.615625 62.213428 
L 137.590625 64.555864 
L 138.565625 57.528565 
L 139.540625 61.432616 
L 158.065625 61.432616 
L 159.040625 64.675209 
L 160.015625 74.402995 
L 160.990625 45.219644 
L 161.965625 61.432616 
L 173.665625 61.432616 
L 174.640625 61.649384 
L 175.615625 62.299689 
L 176.590625 60.348784 
L 177.565625 61.432616 
L 178.540625 61.99666 
L 179.515625 63.688792 
L 180.490625 58.612397 
L 181.465625 62.216135 
L 182.440625 64.945801 
L 183.415625 59.03146 
L 184.390625 59.53706 
L 185.365625 61.99666 
L 186.340625 63.688792 
L 187.315625 58.612397 
L 188.290625 61.814053 
L 189.265625 62.958364 
L 190.240625 59.525432 
L 191.215625 61.99666 
L 192.190625 63.688792 
L 193.165625 58.612397 
L 194.140625 61.432616 
L 196.090625 61.432616 
L 197.065625 62.216135 
L 198.040625 64.566691 
L 199.015625 57.515023 
L 199.990625 61.432616 
L 213.640625 61.432616 
L 214.615625 61.99666 
L 215.590625 63.688792 
L 216.565625 58.612397 
L 217.540625 61.432616 
L 218.515625 61.811726 
L 219.490625 62.949054 
L 220.465625 59.53706 
L 221.440625 61.432616 
L 226.315625 61.432616 
L 227.290625 61.99666 
L 228.265625 63.688792 
L 229.240625 58.612397 
L 230.215625 61.432616 
L 267.265625 61.432616 
L 267.265625 61.432616 
" clip-path="url(#pedd27e8557)" style="fill: none; stroke: #0000ff; stroke-opacity: 0.35; stroke-width: 1.5; stroke-linecap: square"/>
   </g>
   <g id="line2d_144">
    <path d="M 34.240625 25.277539 
L 50.815625 25.277539 
L 51.790625 26.111769 
L 52.765625 28.614461 
L 53.740625 21.106387 
L 54.715625 25.277539 
L 56.665625 25.277539 
L 57.640625 26.894314 
L 58.615625 31.744656 
L 59.590625 17.193646 
L 60.565625 25.277539 
L 63.490625 25.277539 
L 64.465625 26.060083 
L 65.440625 28.407735 
L 66.415625 21.364798 
L 67.390625 25.277539 
L 72.265625 25.277539 
L 73.240625 25.663717 
L 74.215625 26.822259 
L 75.190625 23.346641 
L 77.140625 28.614461 
L 78.115625 21.106387 
L 79.090625 25.277539 
L 85.915625 25.277539 
L 86.890625 26.060083 
L 87.865625 28.407735 
L 88.840625 21.364798 
L 89.815625 25.277539 
L 92.740625 25.277539 
L 93.715625 26.111769 
L 94.690625 29.48324 
L 95.665625 24.751949 
L 96.640625 21.615297 
L 97.615625 24.425439 
L 98.590625 25.277539 
L 103.465625 25.277539 
L 104.440625 25.517409 
L 105.415625 26.237018 
L 106.390625 24.912428 
L 107.365625 28.614461 
L 108.340625 21.106387 
L 109.315625 25.277539 
L 118.090625 25.277539 
L 119.065625 26.111769 
L 120.040625 28.614461 
L 121.015625 21.106387 
L 121.990625 25.277539 
L 122.965625 26.146327 
L 123.940625 28.752674 
L 124.915625 22.550399 
L 125.890625 31.744656 
L 126.865625 18.027876 
L 127.840625 29.48324 
L 128.815625 24.751949 
L 129.790625 21.615297 
L 130.765625 24.425439 
L 131.740625 25.277539 
L 136.615625 25.277539 
L 137.590625 25.517409 
L 138.565625 26.237018 
L 139.540625 24.912428 
L 140.515625 28.614461 
L 141.490625 21.106387 
L 142.465625 25.277539 
L 149.290625 25.277539 
L 150.265625 26.060083 
L 151.240625 28.407735 
L 152.215625 21.364798 
L 153.190625 25.277539 
L 155.140625 25.277539 
L 156.115625 26.146327 
L 157.090625 28.752674 
L 158.065625 20.933615 
L 159.040625 25.663717 
L 160.015625 26.822259 
L 160.990625 23.346641 
L 162.940625 28.614461 
L 163.915625 21.106387 
L 164.890625 25.277539 
L 171.715625 25.277539 
L 172.690625 26.060083 
L 173.665625 28.407735 
L 174.640625 21.364798 
L 175.615625 25.277539 
L 180.490625 25.277539 
L 181.465625 26.111769 
L 182.440625 29.48324 
L 183.415625 24.751949 
L 184.390625 21.615297 
L 185.365625 24.425439 
L 186.340625 25.277539 
L 187.315625 25.277539 
L 188.290625 28.559568 
L 189.265625 38.405673 
L 190.240625 8.867375 
L 191.215625 25.277539 
L 192.190625 25.517409 
L 193.165625 26.237018 
L 194.140625 24.912428 
L 195.115625 28.614461 
L 196.090625 21.106387 
L 197.065625 25.277539 
L 209.740625 25.277539 
L 210.715625 26.146327 
L 211.690625 28.752674 
L 212.665625 20.933615 
L 213.640625 25.277539 
L 216.565625 25.277539 
L 217.540625 26.111769 
L 218.515625 29.48324 
L 219.490625 24.751949 
L 220.465625 21.615297 
L 221.440625 24.425439 
L 222.415625 25.277539 
L 227.290625 25.277539 
L 228.265625 25.517409 
L 229.240625 26.237018 
L 230.215625 24.912428 
L 231.190625 28.614461 
L 232.165625 21.106387 
L 233.140625 25.277539 
L 245.815625 25.277539 
L 246.790625 26.146327 
L 247.765625 28.752674 
L 248.740625 20.933615 
L 249.715625 25.277539 
L 267.265625 25.277539 
L 267.265625 25.277539 
" clip-path="url(#pedd27e8557)" style="fill: none; stroke: #bf00bf; stroke-opacity: 0.35; stroke-width: 1.5; stroke-linecap: square"/>
   </g>
   <g id="patch_3">
    <path d="M 34.240625 151.82031 
L 34.240625 7.2 
" style="fill: none; stroke: #000000; stroke-width: 0.8; stroke-linejoin: miter; stroke-linecap: square"/>
   </g>
   <g id="patch_4">
    <path d="M 34.240625 151.82031 
L 268.240625 151.82031 
" style="fill: none; stroke: #000000; stroke-width: 0.8; stroke-linejoin: miter; stroke-linecap: square"/>
   </g>
  </g>
  <g id="text_13">
   <!-- (c) -->
   <g transform="translate(10.32625 17.19039) scale(0.1 -0.1)">
    <defs>
     <path id="DejaVuSans-Bold-28" d="M 2413 -844 
L 1484 -844 
Q 1006 -72 778 623 
Q 550 1319 550 2003 
Q 550 2688 779 3389 
Q 1009 4091 1484 4856 
L 2413 4856 
Q 2013 4116 1813 3408 
Q 1613 2700 1613 2009 
Q 1613 1319 1811 609 
Q 2009 -100 2413 -844 
z
" transform="scale(0.015625)"/>
     <path id="DejaVuSans-Bold-63" d="M 3366 3391 
L 3366 2478 
Q 3138 2634 2908 2709 
Q 2678 2784 2431 2784 
Q 1963 2784 1702 2511 
Q 1441 2238 1441 1747 
Q 1441 1256 1702 982 
Q 1963 709 2431 709 
Q 2694 709 2930 787 
Q 3166 866 3366 1019 
L 3366 103 
Q 3103 6 2833 -42 
Q 2563 -91 2291 -91 
Q 1344 -91 809 395 
Q 275 881 275 1747 
Q 275 2613 809 3098 
Q 1344 3584 2291 3584 
Q 2566 3584 2833 3536 
Q 3100 3488 3366 3391 
z
" transform="scale(0.015625)"/>
     <path id="DejaVuSans-Bold-29" d="M 513 -844 
Q 913 -100 1113 609 
Q 1313 1319 1313 2009 
Q 1313 2700 1113 3408 
Q 913 4116 513 4856 
L 1441 4856 
Q 1916 4091 2145 3389 
Q 2375 2688 2375 2003 
Q 2375 1319 2147 623 
Q 1919 -72 1441 -844 
L 513 -844 
z
" transform="scale(0.015625)"/>
    </defs>
    <use xlink:href="#DejaVuSans-Bold-28"/>
    <use xlink:href="#DejaVuSans-Bold-63" x="45.703125"/>
    <use xlink:href="#DejaVuSans-Bold-29" x="104.980469"/>
   </g>
  </g>
 </g>
 <defs>
  <clipPath id="pedd27e8557">
   <rect x="34.240625" y="7.2" width="234" height="144.62031"/>
  </clipPath>
 </defs>
</svg>
